<?xml version="1.0" encoding="UTF-8" standalone="no"?>
<!-- Created with Inkscape (http://www.inkscape.org/) -->

<svg
   width="49.6063pc"
   height="62.157001pc"
   viewBox="0 0 209.99954 263.13075"
   version="1.1"
   id="svg4001"
   xml:space="preserve"
   sodipodi:docname="error.svg"
   inkscape:export-filename="error.png"
   inkscape:export-xdpi="72"
   inkscape:export-ydpi="72"
   inkscape:version="1.2.1 (9c6d41e410, 2022-07-14)"
   xmlns:inkscape="http://www.inkscape.org/namespaces/inkscape"
   xmlns:sodipodi="http://sodipodi.sourceforge.net/DTD/sodipodi-0.dtd"
   xmlns:xlink="http://www.w3.org/1999/xlink"
   xmlns="http://www.w3.org/2000/svg"
   xmlns:svg="http://www.w3.org/2000/svg"><sodipodi:namedview
     id="namedview45"
     pagecolor="#ffffff"
     bordercolor="#000000"
     borderopacity="0.25"
     inkscape:showpageshadow="2"
     inkscape:pageopacity="0.0"
     inkscape:pagecheckerboard="0"
     inkscape:deskcolor="#d1d1d1"
     inkscape:document-units="pc"
     showgrid="false"
     inkscape:zoom="0.70199216"
     inkscape:cx="93.305885"
     inkscape:cy="709.40963"
     inkscape:window-width="1920"
     inkscape:window-height="986"
     inkscape:window-x="-11"
     inkscape:window-y="-11"
     inkscape:window-maximized="1"
     inkscape:current-layer="svg4001" /><defs
     id="defs3998"><linearGradient
       id="linearGradient3737"><stop
         style="stop-color:#000000;stop-opacity:1;"
         offset="0"
         id="stop3735" /></linearGradient><clipPath
       clipPathUnits="userSpaceOnUse"
       id="clipPath3616"><path
         id="path3618"
         style="fill:#ff0000;fill-opacity:1;fill-rule:nonzero;stroke:none"
         d="M 8.9765625,1.7011719 V 41.701172 H 25.630859 c -0.03461,-0.137607 -0.06598,-0.275428 -0.07227,-0.417969 -0.01636,-0.106532 -0.03423,-0.213434 -0.08789,-0.308594 -0.08514,-0.15884 -0.166108,-0.32049 -0.205078,-0.498047 -0.04167,-0.182348 -0.09159,-0.36354 -0.107422,-0.550781 -0.02928,-0.20034 -0.07066,-0.398082 -0.123047,-0.59375 -0.09169,-0.342421 0.06599,-0.531751 0.25,-0.523437 0.08187,0.0037 0.168984,0.04706 0.242188,0.132812 0.05531,-0.115305 0.142318,-0.184177 0.236328,-0.191406 0.154001,-0.01184 0.313738,0.128836 0.33789,0.423828 0.06021,7.25e-4 0.120286,0.02432 0.171876,0.07031 0.09993,-0.09718 0.226433,-0.174047 0.335937,-0.244141 0.06028,-0.03421 0.212421,-0.120628 0.335937,-0.134766 0.185339,-0.07555 0.377748,-0.135861 0.564454,-0.205078 0.0118,-0.0043 0.02335,-0.0094 0.03516,-0.01367 0.0035,-0.0074 0.0069,-0.01465 0.01172,-0.02148 0.006,-0.0087 0.0076,9.39e-4 0.0078,0.01563 0.247738,-0.09042 0.496205,-0.179823 0.744141,-0.269531 0.07408,-0.0268 0.141645,-0.04119 0.203125,-0.04492 0.04868,-0.003 0.09101,6.86e-4 0.130859,0.0098 0.04447,-0.08496 0.09733,-0.164998 0.154297,-0.242188 -0.197978,-0.391844 -0.558476,-0.832152 -0.326172,-0.845703 0.06185,-0.0036 0.165846,0.02403 0.326172,0.08984 0.174647,0.07169 0.350232,0.137136 0.529297,0.193359 0.02045,-0.01908 0.04018,-0.03964 0.06055,-0.05859 0.22164,-0.185112 0.444611,-0.381424 0.693359,-0.533203 -0.303085,-0.327149 -0.119044,-0.851716 0.705078,-1.082031 0.100486,-0.02809 0.201244,-0.04153 0.302735,-0.04883 -0.02064,-0.411168 0.189498,-0.690945 0.488281,-0.714844 0.08606,-0.20047 0.287397,-0.344459 0.572266,-0.355469 0.200909,-0.0078 0.440606,0.05077 0.705078,0.199219 0.192429,0.108015 0.385343,0.210406 0.582031,0.310547 0.186582,0.110067 0.386747,0.190792 0.589844,0.263672 0.217923,0.06375 0.430583,0.141766 0.642578,0.222656 0.127935,0.04834 0.266141,0.06359 0.40039,0.08594 1.36763,0.227659 1.136848,1.610371 -0.230468,1.38086 -0.21108,-0.03543 -0.423374,-0.07072 -0.625,-0.144531 -0.01743,0.318895 -0.315248,0.648542 -0.933594,0.734375 -0.05376,0.0075 -0.558103,0.07444 -0.570313,0.04883 -0.0171,-0.03588 -0.0333,-0.07266 -0.04883,-0.109375 0.125072,0.324598 -0.06098,0.773611 -0.695312,1.03125 -0.190162,0.07723 -0.383277,0.146288 -0.580078,0.201172 -0.188145,0.119648 -0.377408,0.236272 -0.556641,0.36914 -0.21317,0.185964 -0.439353,0.355225 -0.667969,0.521485 -0.29143,0.211938 -0.560889,0.2928 -0.783203,0.28125 -0.08916,0.161622 -0.182365,0.320092 -0.292969,0.46875 -0.205634,0.193523 -0.336759,0.37042 -0.710937,0.30664 -0.120802,-0.02059 -0.228063,-0.08721 -0.328125,-0.164062 -0.203398,0.326178 -0.42121,0.694448 -0.72461,0.910156 -0.0231,0.01642 -0.04778,0.03051 -0.07227,0.04492 h 9.738281 V 1.7011719 Z M 26.271484,41.642578 c 0.003,0.01303 0.0067,0.02589 0.0098,0.03906 0.0015,0.0066 0.0025,0.01304 0.0039,0.01953 h 0.04687 c -0.01966,-0.01745 -0.04002,-0.03672 -0.06055,-0.05859 z" /></clipPath><linearGradient
       xlink:href="#linearGradient3737"
       id="linearGradient3721"
       x1="23.93634"
       y1="34.535809"
       x2="34.122017"
       y2="34.535809"
       gradientUnits="userSpaceOnUse"
       gradientTransform="matrix(1.2161407,-0.12181467,0.06202239,0.88101029,-7.3891268,7.9481388)" /><linearGradient
       xlink:href="#linearGradient3737"
       id="linearGradient3739"
       x1="17.379311"
       y1="43.91777"
       x2="18.190983"
       y2="43.91777"
       gradientUnits="userSpaceOnUse"
       gradientTransform="matrix(0.78431373,0,0,0.78947369,12.231237,6.4607001)" /></defs><path
     style="fill:none;fill-rule:evenodd;stroke:#000000;stroke-width:0.295924px;stroke-linecap:butt;stroke-linejoin:miter;stroke-opacity:1"
     d="m 134.42635,11.939026 v 0"
     id="path6926" /><g
     id="g4233"
     transform="matrix(1.1370638,0,0,1.100148,-13.686844,8.9252344)"><g
       style="fill:none"
       id="g4079"
       transform="matrix(3.138473,0,0,2.8783791,27.428247,68.167832)"><path
         d="m 22.981432,41.700265 c -3.7118,-0.004 -7.2705,-1.48024 -9.8951,-4.1049 -2.6247,-2.6246 -4.1008996,-6.1833 -4.1048996,-9.8951 -0.05415,-1.9532 0.2943,-3.8967 1.0234996,-5.7094 0.7293,-1.8128 1.8238,-3.4561 3.2155,-4.8276 0.8617,-0.8121 1.5504,-1.7899 2.0249,-2.8747 0.4744,-1.0848 0.7248,-2.2543 0.7361,-3.4383 V 8.7002653 c 0.0026,-0.6183 0.1961,-1.2206 0.5541,-1.7247 0.358,-0.5041 0.863,-0.8852 1.4459,-1.0913 v -0.184 c 0,-1.0609 0.4214,-2.0783 1.1716,-2.8284 0.7501,-0.7502 1.7675,-1.1716 2.8284,-1.1716 h 2 c 1.0609,0 2.0783,0.4214 2.8284,1.1716 0.7502,0.7501 1.1716,1.7675 1.1716,2.8284 v 0.184 c 0.5829,0.2061 1.0879,0.5872 1.4459,1.0913 0.358,0.5041 0.5515,1.1064 0.5541,1.7247 v 2.1499997 c 0.0113,1.184 0.2617,2.3535 0.7361,3.4383 0.4745,1.0848 1.1632,2.0626 2.0249,2.8747 1.3917,1.3715 2.4862,3.0148 3.2155,4.8276 0.7293,1.8127 1.0777,3.7562 1.0235,5.7094 -0.004,3.7118 -1.4802,7.2705 -4.1049,9.8951 -2.6246,2.62466 -6.1833,4.10093 -9.8951,4.1049 z m 1,-37.9999997 h -2 c -0.5304,0 -1.0391,0.2107 -1.4142,0.5858 -0.3751,0.3751 -0.5858,0.8838 -0.5858,1.4142 h 6 c 0,-0.5304 -0.2107,-1.0391 -0.5858,-1.4142 -0.3751,-0.3751 -0.8838,-0.5858 -1.4142,-0.5858 z m 3,4 h -8 c -0.2652,0 -0.5196,0.1054 -0.7071,0.2929 -0.1875,0.1875 -0.2929,0.4419 -0.2929,0.7071 v 1 h 10 v -1 c 0,-0.2652 -0.1053,-0.5196 -0.2929,-0.7071 -0.1875,-0.1875 -0.4419,-0.2929 -0.7071,-0.2929 z m -7,12.9999997 h -1 c -0.1978,0 -0.3911,0.0586 -0.5556,0.1685 -0.1644,0.1099 -0.2926,0.2661 -0.3683,0.4488 -0.0757,0.1827 -0.0955,0.3838 -0.0569,0.5778 0.0386,0.194 0.1338,0.3722 0.2737,0.512 0.1399,0.1399 0.318,0.2351 0.512,0.2737 0.194,0.0386 0.3951,0.0188 0.5778,-0.0569 0.1827,-0.0757 0.3389,-0.2039 0.4488,-0.3683 0.1099,-0.1645 0.1685,-0.3578 0.1685,-0.5556 z m 2,-2 h 2 v -7 h -2 z m 9.366,-0.1 c -1.9127,-1.8182 -3.097,-4.2714 -3.331,-6.9 h -2.035 v 7 h 1 c 0.5934,0 1.1734,0.1759 1.6667,0.5056 0.4934,0.3296 0.8779,0.7982 1.1049,1.3463 0.2271,0.5482 0.2865,1.1514 0.1708,1.7334 -0.1158,0.5819 -0.4015,1.1165 -0.8211,1.536 -0.4195,0.4196 -0.9541,0.7053 -1.536,0.8211 -0.582,0.1157 -1.1852,0.0563 -1.7333,-0.1708 -0.5482,-0.227 -1.0168,-0.6115 -1.3464,-1.1049 -0.3296,-0.4933 -0.5056,-1.0734 -0.5056,-1.6667 v -1 h -2 v 1 c 0,0.5933 -0.1759,1.1734 -0.5056,1.6667 -0.3296,0.4934 -0.7982,0.8779 -1.3463,1.1049 -0.5482,0.2271 -1.1514,0.2865 -1.7334,0.1708 -0.5819,-0.1158 -1.1165,-0.4015 -1.536,-0.8211 -0.4196,-0.4195 -0.7053,-0.9541 -0.821,-1.536 -0.1158,-0.582 -0.0564,-1.1852 0.1707,-1.7334 0.227,-0.5481 0.6116,-1.0167 1.1049,-1.3463 0.4933,-0.3297 1.0734,-0.5056 1.6667,-0.5056 h 1 v -7 h -2.035 c -0.234,2.6286 -1.4183,5.0818 -3.331,6.9 -1.1977,1.1863 -2.1384,2.6065 -2.7636,4.172 -0.6251,1.5655 -0.9214,3.243 -0.8704,4.928 0,3.1826 1.2643,6.2348 3.5147,8.4853 2.2505,2.2504 5.3027,3.5147 8.4853,3.5147 3.1826,0 6.2349,-1.2643 8.4853,-3.5147 2.2504,-2.2505 3.5147,-5.3027 3.5147,-8.4853 0.051,-1.685 -0.2452,-3.3625 -0.8704,-4.928 -0.6252,-1.5655 -1.5659,-2.9857 -2.7636,-4.172 z m -5.366,2.1 v 1 c 0,0.1978 0.0587,0.3911 0.1685,0.5556 0.1099,0.1644 0.2661,0.2926 0.4488,0.3683 0.1828,0.0757 0.3838,0.0955 0.5778,0.0569 0.194,-0.0386 0.3722,-0.1338 0.512,-0.2737 0.1399,-0.1398 0.2351,-0.318 0.2737,-0.512 0.0386,-0.194 0.0188,-0.3951 -0.0569,-0.5778 -0.0757,-0.1827 -0.2039,-0.3389 -0.3683,-0.4488 -0.1645,-0.1099 -0.3578,-0.1685 -0.5556,-0.1685 z"
         fill="#000000"
         id="path45"
         clip-path="url(#clipPath3616)"
         style="stroke-linejoin:round"
         transform="translate(0.76392573)" /><path
         style="fill:none;stroke:url(#linearGradient3721);stroke-width:1.2547;stroke-linejoin:round;stroke-dasharray:none"
         d="m 25.946373,41.338772 -1.982865,-4.449845 1.571412,-2.645222 -0.739576,-5.797529 4.900754,2.862871 0.14188,3.072249 5.43657,0.762096"
         id="path3715" /><ellipse
         style="fill:url(#linearGradient3739);fill-opacity:1;stroke-width:1.0324;stroke-linejoin:round;stroke-dasharray:none"
         id="path3733"
         cx="26.180372"
         cy="41.132626"
         rx="0.31830239"
         ry="0.35809019" /><ellipse
         style="fill:none;stroke-width:1.312;stroke-linejoin:round;stroke-dasharray:none"
         id="path3741"
         cx="19.687002"
         cy="43.535809"
         rx="1.0344827"
         ry="0.42175066" /></g></g><path
     style="fill:#000000;stroke-width:0;stroke-linejoin:round"
     d="m 102.23957,8.9252344 -2e-5,80.3788336"
     id="path4296" /><path
     style="fill:#000000;stroke-width:0;stroke-linejoin:round"
     d="m 102.23955,89.304068 c 0,0 0,0 2e-5,-80.3788336 z"
     id="path4298" /><path
     style="fill:#ffd42a;stroke-width:0;stroke-linejoin:round"
     d="m 97.525355,209.16188 c -16.661887,-1.56299 -31.003763,-12.2537 -36.104631,-26.91307 -1.325513,-3.8094 -1.371067,-4.17141 -1.382667,-10.98823 -0.01375,-8.07419 0.427039,-10.2499 3.228178,-15.93431 2.269282,-4.60509 4.691645,-7.80946 8.955981,-11.84721 4.561254,-4.31889 7.060354,-7.52569 9.04799,-11.61019 1.663045,-3.41749 2.969683,-7.59439 2.969683,-9.49313 0,-1.07941 0.0034,-1.08044 3.642789,-1.08044 h 3.642787 v 10.78089 10.78089 H 89.03187 c -7.071667,0 -11.824547,3.91672 -11.824547,9.74427 0,5.85139 5.293937,10.19997 11.729964,9.63532 5.95783,-0.52269 9.843897,-4.52272 9.864347,-10.15364 l 0.009,-2.59155 h 3.428506 3.42851 l 0.009,2.59155 c 0.0205,5.63092 3.90652,9.63095 9.86435,10.15364 6.47266,0.56788 11.72995,-3.75062 11.72995,-9.63532 0,-5.82755 -4.75288,-9.74427 -11.82455,-9.74427 h -2.49359 V 132.07619 121.2953 h 3.64278 c 3.63932,0 3.64279,0.001 3.64279,1.08044 0,1.89874 1.30664,6.07564 2.96968,9.49313 1.98764,4.0845 4.48674,7.2913 9.04799,11.61019 6.18248,5.85397 9.87188,11.94163 11.58547,19.11646 0.80015,3.35025 0.9032,4.74403 0.72525,9.8096 -0.18034,5.13362 -0.3778,6.4068 -1.5124,9.75175 -1.465,4.31901 -4.64776,10.04352 -5.58407,10.04352 -0.33819,0 -2.97613,-0.30466 -5.8621,-0.67703 l -5.24723,-0.67703 -0.25568,-4.36831 c -0.16116,-2.75343 -0.46109,-4.55422 -0.81133,-4.87121 -1.20557,-1.09109 -18.41916,-9.72425 -19.3891,-9.72425 -1.09191,0 -2.38045,0.97012 -2.38045,1.7922 0,0.26895 0.57251,4.45847 1.27224,9.31003 l 1.27222,8.82102 -2.77219,4.14656 c -1.52472,2.28061 -2.77221,4.42563 -2.77221,4.76672 0,0.34109 0.88343,2.32208 1.96319,4.4022 2.53041,4.87478 2.67495,4.75711 -4.963131,4.04059 z"
     id="path6546" /><path
     style="fill:#ffd42a;stroke-width:0;stroke-linejoin:round"
     d="M 98.811044,132.07619 V 121.2953 h 3.428506 3.42851 v 10.78089 10.78089 h -3.42851 -3.428506 z"
     id="path6548" /><path
     style="fill:#ffd42a;stroke-width:0;stroke-linejoin:round"
     d="m 86.281012,155.07192 c -1.285287,-0.68543 -1.854032,-2.11787 -1.395677,-3.51512 0.36865,-1.1238 2.632794,-2.06532 4.966638,-2.06532 h 1.782543 l -0.209332,2.10785 c -0.322041,3.24273 -2.640469,4.8078 -5.144172,3.47259 z"
     id="path6550" /><path
     style="fill:#c8b7b7;stroke-width:0;stroke-linejoin:round"
     d="m 115.10489,155.17863 c -1.35999,-0.66579 -2.13694,-2.16257 -2.14495,-4.13221 -0.006,-1.54074 0.009,-1.55494 1.72171,-1.55494 0.9504,0 2.38995,0.26759 3.19897,0.59464 2.45106,0.99087 2.56807,3.8262 0.20669,5.00768 -1.48575,0.74337 -1.62891,0.74744 -2.98242,0.0848 z"
     id="path6552" /><path
     style="fill:#c8b7b7;stroke-width:0;stroke-linejoin:round"
     d="m 84.668454,112.42627 c 0,-1.17414 0.290727,-2.16736 0.81926,-2.79889 l 0.81926,-0.97889 h 15.932576 15.93257 l 0.81926,0.97889 c 0.52853,0.63153 0.81927,1.62475 0.81927,2.79889 v 1.81999 h -17.5711 -17.571096 z"
     id="path6623" /><path
     style="fill:#ffd42a;stroke-width:0;stroke-linejoin:round"
     d="m 91.954029,101.03879 c 0,-1.238332 1.824899,-3.527172 3.437049,-4.310842 2.153582,-1.04686 11.543362,-1.04686 13.696932,0 1.61216,0.78367 3.43705,3.07251 3.43705,4.310842 0,0.7262 -0.55946,0.76798 -10.28551,0.76798 -9.726061,0 -10.285521,-0.0418 -10.285521,-0.76798 z"
     id="path6625" /><path
     style="fill:#c8b7b7;stroke-width:0;stroke-linejoin:round"
     d="m 114.69422,154.57094 c -1.22861,-0.96302 -1.87261,-3.64854 -1.06283,-4.43204 0.32608,-0.31548 0.93373,-0.50815 1.35038,-0.42816 2.59662,0.49853 3.12205,0.67646 3.7275,1.26226 1.04489,1.01097 0.84954,2.87221 -0.38352,3.65391 -1.36459,0.86509 -2.47837,0.84791 -3.63153,-0.056 z"
     id="path6627" /><path
     style="fill:#c8b7b7;stroke-width:0;stroke-linejoin:round"
     d="m 95.489677,101.49889 c -3.481269,-0.16034 -3.779768,-0.516 -2.21617,-2.640592 1.612645,-2.19122 3.029745,-2.60256 8.966043,-2.60256 5.9363,0 7.35339,0.41134 8.96604,2.60256 1.61319,2.191962 1.35464,2.380342 -3.67567,2.678132 -4.44891,0.26337 -5.58345,0.25983 -12.040243,-0.0375 z"
     id="path6629" /><path
     style="fill:#ffcc00;stroke-width:0;stroke-linejoin:round"
     d="m 114.69422,154.57094 c -1.22861,-0.96302 -1.87261,-3.64854 -1.06283,-4.43204 0.32608,-0.31548 0.93373,-0.50815 1.35038,-0.42816 2.59662,0.49853 3.12205,0.67646 3.7275,1.26226 0.99904,0.96661 0.85115,2.91175 -0.27967,3.67809 -1.24886,0.84633 -2.5901,0.81755 -3.73538,-0.0802 z"
     id="path6631" /><path
     style="fill:#ffcc00;stroke-width:0;stroke-linejoin:round"
     d="m 114.5081,153.94896 c -1.73855,-2.66733 -1.13785,-4.29075 1.41799,-3.83211 1.9632,0.35229 3.02743,1.29199 3.02743,2.67316 0,1.46167 -0.73299,2.09191 -2.43293,2.09191 -0.99051,0 -1.58359,-0.27494 -2.01249,-0.93296 z"
     id="path6771" /><path
     style="display:inline;fill:none;fill-rule:evenodd;stroke:#000000;stroke-width:2.43486;stroke-linecap:butt;stroke-linejoin:miter;stroke-dasharray:none;stroke-opacity:1"
     d="M 103.18618,4.0889768e-7 103.18615,89.320388"
     id="path6924" /><path
     style="display:inline;fill:none;fill-rule:evenodd;stroke:#000000;stroke-width:4.0913;stroke-linecap:round;stroke-linejoin:round;stroke-dasharray:none;stroke-opacity:1"
     d="m 103.4014,231.21884 -2e-5,21.08376"
     id="path6924-8" /><path
     style="display:inline;fill:none;fill-rule:evenodd;stroke:#000000;stroke-width:4.0913;stroke-linecap:round;stroke-linejoin:round;stroke-dasharray:none;stroke-opacity:1"
     d="m 124.40246,227.79299 3.00848,20.88186"
     id="path6924-8-7" /><path
     style="display:inline;fill:none;fill-rule:evenodd;stroke:#000000;stroke-width:4.0913;stroke-linecap:round;stroke-linejoin:round;stroke-dasharray:none;stroke-opacity:1"
     d="m 140.94912,222.59948 9.02542,19.19037"
     id="path6924-8-7-6" /><path
     style="display:inline;fill:none;fill-rule:evenodd;stroke:#000000;stroke-width:4.0913;stroke-linecap:round;stroke-linejoin:round;stroke-dasharray:none;stroke-opacity:1"
     d="m 152.98298,210.2347 15.04245,15.25463"
     id="path6924-8-7-6-52" /><path
     style="display:inline;fill:none;fill-rule:evenodd;stroke:#000000;stroke-width:4.0913;stroke-linecap:round;stroke-linejoin:round;stroke-dasharray:none;stroke-opacity:1"
     d="M 53.402308,211.45824 38.359864,226.71287"
     id="path6924-8-7-6-52-6" /><path
     style="display:inline;fill:none;fill-rule:evenodd;stroke:#000000;stroke-width:4.0913;stroke-linecap:round;stroke-linejoin:round;stroke-dasharray:none;stroke-opacity:1"
     d="m 66.338735,222.59948 -9.025421,19.19037"
     id="path6924-8-7-6-5" /><path
     style="display:inline;fill:none;fill-rule:evenodd;stroke:#000000;stroke-width:4.0913;stroke-linecap:round;stroke-linejoin:round;stroke-dasharray:none;stroke-opacity:1"
     d="M 82.885409,227.2738 79.87692,248.15567"
     id="path6924-8-7-9" /><path
     style="fill:none;fill-rule:evenodd;stroke:#000000;stroke-width:0.295924px;stroke-linecap:butt;stroke-linejoin:miter;stroke-opacity:1"
     d="m 102.23956,49.114648 v 0.14555"
     id="path6928" /><path
     style="fill:none;stroke-width:4.0913;stroke-linecap:round;stroke-linejoin:round"
     d="M 40.465968,84.606448 C 10.381006,119.53635 10.381006,189.39575 40.46657,224.32531 c 30.085565,34.92954 90.25398,34.92954 120.33864,-7.1e-4 30.08466,-34.93024 30.08466,-104.78825 -6e-4,-139.718152 -30.08527,-34.929899 -90.253678,-34.929899 -120.338642,0 z"
     id="path1278" /><path
     style="fill:none;stroke-width:4.0913;stroke-linecap:round;stroke-linejoin:round"
     d="M 45.480104,85.576718 C 74.56224,49.676549 132.7262,49.676549 161.80803,85.577438 190.88987,121.47832 190.88987,193.27683 161.80746,229.17665 132.72504,265.07647 74.56224,265.07647 45.480105,229.17593 16.397969,193.27539 16.397969,121.47689 45.480104,85.576718 Z"
     id="path2008" /></svg>
