<svg id="Capa_1" data-name="Capa 1" xmlns="http://www.w3.org/2000/svg" viewBox="0 0 751.75 237.15"><defs><style>.cls-1{fill:#3f6633;}.cls-2{fill:#e7c338;}</style></defs><path class="cls-1" d="M42.55,192.27a19.76,19.76,0,0,1-5.23-.64,5.59,5.59,0,0,0-1.38-.31,1.23,1.23,0,0,0-1.22,1,9.75,9.75,0,0,0-.53,2.25,1.19,1.19,0,0,0,.91,1.22,24.32,24.32,0,0,0,7.31.94c3.33,0,5.7-.64,7.1-1.94a7.26,7.26,0,0,0,2.11-5.64c0-2.14-.4-3.68-1.2-4.63s-2.33-1.72-4.6-2.32l-3-.71c-1.62-.38-2.42-1.22-2.42-2.53,0-1.59.94-2.39,2.83-2.39a28.2,28.2,0,0,1,4.92.43,5.62,5.62,0,0,0,1.32.17c.47,0,.78-.3.94-.91a10.94,10.94,0,0,0,.4-2.29,1.1,1.1,0,0,0-.87-1.18,20.88,20.88,0,0,0-6.34-.74q-4.76,0-6.81,2a8.59,8.59,0,0,0-.68,10.25,7.48,7.48,0,0,0,4.32,2.3l2.8.6a4.32,4.32,0,0,1,2.14,1,2.52,2.52,0,0,1,.52,1.75,2.25,2.25,0,0,1-.72,1.76A4.15,4.15,0,0,1,42.55,192.27Z"/><path class="cls-1" d="M71.77,173.37a8.73,8.73,0,0,0-2.87-1,22.16,22.16,0,0,0-3.76-.27,16.09,16.09,0,0,0-4.25.5,8.89,8.89,0,0,0-3.3,1.79,7.78,7.78,0,0,0-2.29,3.76,20.73,20.73,0,0,0-.78,6.15,25.46,25.46,0,0,0,.62,6.12,8.49,8.49,0,0,0,2,3.85,7.2,7.2,0,0,0,3.19,2,16.16,16.16,0,0,0,4.58.55,16.59,16.59,0,0,0,4.72-.57,7.56,7.56,0,0,0,3.27-2,8.18,8.18,0,0,0,2-3.84,25.07,25.07,0,0,0,.62-6.12,28,28,0,0,0-.42-5.26,11.69,11.69,0,0,0-1.19-3.51A5.53,5.53,0,0,0,71.77,173.37Zm-2.31,15.09a5.38,5.38,0,0,1-1,2.43A3.49,3.49,0,0,1,67,192a6.3,6.3,0,0,1-2.06.29,5.33,5.33,0,0,1-2.65-.56,4,4,0,0,1-1.53-2.33,17.33,17.33,0,0,1-.58-5.07,15.76,15.76,0,0,1,.59-4.84,4.14,4.14,0,0,1,1.59-2.33,5.2,5.2,0,0,1,2.65-.59,5.48,5.48,0,0,1,2.81.58,3.64,3.64,0,0,1,1.45,2.26,18.69,18.69,0,0,1,.49,5A23.34,23.34,0,0,1,69.46,188.46Z"/><path class="cls-1" d="M84.47,172.47H80.93c-.68,0-1,.37-1,1.12V192.7q0,3.62,3.75,3.61H94.31q1.05,0,1-.87V192.6c0-.67-.35-1-1-1H86.66a1.06,1.06,0,0,1-1.22-1.18V173.55C85.44,172.83,85.12,172.47,84.47,172.47Z"/><path class="cls-1" d="M102.24,172.51H98.6c-.68,0-1,.34-1,1v13.32c0,3.15.26,5.29.77,6.44q1.59,3.48,8.36,3.48c4.5,0,7.41-1.1,8.74-3.27q1-1.76,1-6.72V173.52c0-.68-.29-1-.87-1h-3.37a.91.91,0,0,0-1,1V188a5.53,5.53,0,0,1-.7,3.27c-.55.68-1.7,1-3.48,1s-2.75-.36-3.27-1.08a5.62,5.62,0,0,1-.67-3.24V173.52C103.12,172.84,102.82,172.51,102.24,172.51Z"/><path class="cls-1" d="M131.58,176.55a21.51,21.51,0,0,1,3.3.24,6.42,6.42,0,0,0,1.18.17.73.73,0,0,0,.74-.47,8.08,8.08,0,0,0,.58-3c0-.5-.29-.81-.88-1a24.2,24.2,0,0,0-5.7-.5q-5.76,0-8.11,3t-2.34,9.76c0,4.41.8,7.5,2.39,9.29s4,2.68,7.12,2.68a21.58,21.58,0,0,0,7.25-1,1,1,0,0,0,.81-1,13.07,13.07,0,0,0-.64-2.69.63.63,0,0,0-.68-.48,4.16,4.16,0,0,0-1.11.21,18.45,18.45,0,0,1-4.08.47,4.74,4.74,0,0,1-4.16-1.74c-.82-1.16-1.24-3.23-1.24-6.22s.42-5,1.25-6.1S129.53,176.55,131.58,176.55Z"/><path class="cls-1" d="M141.8,172.47c-.68,0-1,.37-1,1.12v21.65c0,.74.32,1.11,1,1.11h3.48A1.06,1.06,0,0,0,146,196a1.09,1.09,0,0,0,.31-.8V173.55c0-.72-.33-1.08-1-1.08Z"/><path class="cls-1" d="M167.65,173.37a8.81,8.81,0,0,0-2.87-1,22.16,22.16,0,0,0-3.76-.27,16,16,0,0,0-4.25.5,8.89,8.89,0,0,0-3.3,1.79,7.78,7.78,0,0,0-2.29,3.76,20.73,20.73,0,0,0-.78,6.15,25.46,25.46,0,0,0,.62,6.12,8.49,8.49,0,0,0,2,3.85,7.2,7.2,0,0,0,3.19,2,16.16,16.16,0,0,0,4.58.55,16.59,16.59,0,0,0,4.72-.57,7.56,7.56,0,0,0,3.27-2,8.27,8.27,0,0,0,2-3.84,25.58,25.58,0,0,0,.62-6.12A28,28,0,0,0,171,179a11.4,11.4,0,0,0-1.2-3.51A5.5,5.5,0,0,0,167.65,173.37Zm-2.31,15.09a5.5,5.5,0,0,1-1,2.43,3.49,3.49,0,0,1-1.48,1.09,6.3,6.3,0,0,1-2.06.29,5.33,5.33,0,0,1-2.65-.56,4,4,0,0,1-1.53-2.33,17,17,0,0,1-.58-5.07,15.76,15.76,0,0,1,.59-4.84,4.14,4.14,0,0,1,1.59-2.33,5.18,5.18,0,0,1,2.65-.59,5.48,5.48,0,0,1,2.81.58,3.64,3.64,0,0,1,1.45,2.26,18.69,18.69,0,0,1,.49,5A23.34,23.34,0,0,1,165.34,188.46Z"/><path class="cls-1" d="M189,196a4.13,4.13,0,0,0,2.51.62h1.22a3.68,3.68,0,0,0,2.29-.64,2.88,2.88,0,0,0,.84-2.42V173.75c0-.85-.35-1.28-1-1.28h-3.11c-.76,0-1.14.46-1.14,1.39q0,12.4.13,15.64-1.46-4-6.17-14.53a6.33,6.33,0,0,0-1.28-2,3.24,3.24,0,0,0-2.19-.59H179.5a3.8,3.8,0,0,0-2.85.91,3.93,3.93,0,0,0-.86,2.77v19.19c0,.74.33,1.11,1,1.11h3.3a1.06,1.06,0,0,0,.78-.31,1.09,1.09,0,0,0,.3-.8q0-13.37-.1-16.46,1.45,3.71,6.34,14.8A5.8,5.8,0,0,0,189,196Z"/><path class="cls-1" d="M207.66,177.23h7.49c.69,0,1-.28,1-.85v-2.86a.9.9,0,0,0-1-1H204.9c-2.55,0-3.81,1.3-3.81,3.91v16.12a3.79,3.79,0,0,0,1,2.88,4.07,4.07,0,0,0,2.85.89h10.85q1,0,1.05-.87V192.6c0-.67-.35-1-1.05-1h-7.89a1.25,1.25,0,0,1-1-.29,1.31,1.31,0,0,1-.27-1V186.4h7.75c.7,0,1-.29,1-.88v-2.86a.92.92,0,0,0-1-1h-7.75v-3.2C206.62,177.63,207,177.23,207.66,177.23Z"/><path class="cls-1" d="M227,192.27a19.76,19.76,0,0,1-5.23-.64,5.68,5.68,0,0,0-1.38-.31,1.23,1.23,0,0,0-1.22,1,9.42,9.42,0,0,0-.54,2.25,1.2,1.2,0,0,0,.91,1.22,24.43,24.43,0,0,0,7.32.94c3.33,0,5.69-.64,7.1-1.94a7.29,7.29,0,0,0,2.11-5.64c0-2.14-.4-3.68-1.2-4.63s-2.33-1.72-4.6-2.32l-3-.71c-1.62-.38-2.43-1.22-2.43-2.53,0-1.59,1-2.39,2.83-2.39a28.23,28.23,0,0,1,4.93.43,5.54,5.54,0,0,0,1.31.17c.48,0,.79-.3.95-.91a10.94,10.94,0,0,0,.4-2.29,1.1,1.1,0,0,0-.87-1.18,20.91,20.91,0,0,0-6.35-.74c-3.17,0-5.43.65-6.81,2a8.6,8.6,0,0,0-.67,10.25,7.48,7.48,0,0,0,4.31,2.3l2.8.6a4.27,4.27,0,0,1,2.14,1,2.53,2.53,0,0,1,.53,1.75,2.22,2.22,0,0,1-.73,1.76A4.1,4.1,0,0,1,227,192.27Z"/><path class="cls-1" d="M254.13,177.23h7.49c.69,0,1-.28,1-.85v-2.86a.9.9,0,0,0-1-1H251.36q-3.81,0-3.81,3.91v16.12a3.75,3.75,0,0,0,1,2.88,4.06,4.06,0,0,0,2.84.89h10.86q1,0,1-.87V192.6c0-.67-.35-1-1-1h-7.89a1.25,1.25,0,0,1-1-.29,1.31,1.31,0,0,1-.27-1V186.4h7.75c.7,0,1.05-.29,1.05-.88v-2.86a.92.92,0,0,0-1.05-1h-7.75v-3.2C253.09,177.63,253.43,177.23,254.13,177.23Z"/><path class="cls-1" d="M271,172.37a3.8,3.8,0,0,0-2.85.91,3.88,3.88,0,0,0-.86,2.77v19.19c0,.74.32,1.11,1,1.11h3.3a1,1,0,0,0,1.08-1.11q0-13.37-.1-16.46,1.46,3.71,6.34,14.8a5.8,5.8,0,0,0,1.57,2.38,4.11,4.11,0,0,0,2.51.62h1.21a3.67,3.67,0,0,0,2.29-.64,2.85,2.85,0,0,0,.85-2.42V173.75c0-.85-.35-1.28-1-1.28h-3.1c-.76,0-1.14.46-1.14,1.39q0,12.4.13,15.64-1.46-4-6.17-14.53a6.51,6.51,0,0,0-1.28-2,3.26,3.26,0,0,0-2.2-.59Z"/><path class="cls-1" d="M299.12,177.23h7.48c.7,0,1-.28,1-.85v-2.86c0-.68-.35-1-1-1H296.35q-3.81,0-3.81,3.91v16.12a3.79,3.79,0,0,0,1,2.88,4.07,4.07,0,0,0,2.85.89h10.86q1.05,0,1.05-.87V192.6c0-.67-.35-1-1.05-1h-7.89a1.29,1.29,0,0,1-1-.29,1.36,1.36,0,0,1-.27-1V186.4h7.76c.69,0,1-.29,1-.88v-2.86a.91.91,0,0,0-1-1h-7.76v-3.2C298.07,177.63,298.42,177.23,299.12,177.23Z"/><path class="cls-1" d="M329.43,179.82c0-3.35-1.14-5.49-3.43-6.44q-2.1-.87-7.22-.87h-2.5a4.14,4.14,0,0,0-3.12,1,4.51,4.51,0,0,0-.92,3.12v18.62c0,.74.32,1.11,1,1.11h3.44a1,1,0,0,0,1.08-1.11v-7.83H319c.81,0,1.4,0,1.76,0l4,8.23a1.32,1.32,0,0,0,1.25.81,27.37,27.37,0,0,0,4.14-.18.63.63,0,0,0,.55-.67,3.14,3.14,0,0,0-.48-1.31l-4.31-7.93C328.27,185.18,329.43,183,329.43,179.82Zm-7.25,3a10.14,10.14,0,0,1-3.07.34h-1.38v-5.06a.94.94,0,0,1,1-1.08h1a8.79,8.79,0,0,1,2.52.27c1,.31,1.49,1.27,1.49,2.87A2.5,2.5,0,0,1,322.18,182.79Z"/><path class="cls-1" d="M344.17,176.55a24.36,24.36,0,0,1,4.12.37c.63.09,1,.14,1.18.14a.74.74,0,0,0,.74-.54,8.8,8.8,0,0,0,.54-2.87,1,1,0,0,0-.85-1,26.75,26.75,0,0,0-6.37-.61q-5.83,0-8.34,3t-2.52,9.73a22.47,22.47,0,0,0,.63,5.75,8.32,8.32,0,0,0,1.92,3.71,7.27,7.27,0,0,0,3,1.94,13.88,13.88,0,0,0,4.25.57,23.41,23.41,0,0,0,8.33-1.14,2.48,2.48,0,0,0,.87-.54,1.83,1.83,0,0,0,.34-1.25v-9.75a.77.77,0,0,0-.87-.87h-7.12c-.49,0-.74.27-.74.8v3.17c0,.5.24.75.71.75h3.4v3.24a.75.75,0,0,1-.57.8,11.8,11.8,0,0,1-3.13.34c-2,0-3.38-.58-4.19-1.75s-1.21-3.25-1.21-6.24.45-4.95,1.36-6.07S342.1,176.55,344.17,176.55Z"/><path class="cls-1" d="M360.39,196.31h10.86q1,0,1.05-.87V192.6c0-.67-.35-1-1.05-1h-7.89a1.29,1.29,0,0,1-1-.29,1.36,1.36,0,0,1-.27-1V186.4h7.76c.7,0,1-.29,1-.88v-2.86a.91.91,0,0,0-1-1h-7.76v-3.2c0-.81.35-1.21,1.05-1.21h7.48c.7,0,1.05-.28,1.05-.85v-2.86c0-.68-.35-1-1.05-1H360.39q-3.81,0-3.81,3.91v16.12a3.75,3.75,0,0,0,1,2.88A4.06,4.06,0,0,0,360.39,196.31Z"/><path class="cls-1" d="M362.59,171a13.65,13.65,0,0,0,1.75.1,3.6,3.6,0,0,0,1.85-.5l4.79-3.14a1.21,1.21,0,0,0,.64-1c0-.4-.32-.64-1-.7-1-.09-1.95-.14-2.9-.14a2.73,2.73,0,0,0-1.82.78l-3.54,3.07a1.26,1.26,0,0,0-.54.91C361.84,170.75,362.09,171,362.59,171Z"/><path class="cls-1" d="M381.34,196.35h3.5a1,1,0,0,0,1.05-1.11v-18h5.46c.7,0,1-.28,1-.85v-2.86c0-.68-.35-1-1-1H374.9c-.7,0-1,.33-1,1v2.86c0,.57.35.85,1,.85h5.43v18C380.33,196,380.66,196.35,381.34,196.35Z"/><path class="cls-1" d="M395.91,172.47c-.68,0-1,.37-1,1.12v21.65c0,.74.33,1.11,1,1.11h3.47a1.06,1.06,0,0,0,.78-.31,1.09,1.09,0,0,0,.3-.8V173.55c0-.72-.32-1.08-1-1.08Z"/><path class="cls-1" d="M415.73,176.55a21.65,21.65,0,0,1,3.31.24,6.31,6.31,0,0,0,1.18.17.74.74,0,0,0,.74-.47,8.28,8.28,0,0,0,.57-3c0-.5-.29-.81-.87-1a24.2,24.2,0,0,0-5.7-.5q-5.77,0-8.11,3t-2.34,9.76c0,4.41.79,7.5,2.39,9.29s4,2.68,7.11,2.68a21.64,21.64,0,0,0,7.26-1,1,1,0,0,0,.81-1,12.66,12.66,0,0,0-.65-2.69.62.62,0,0,0-.67-.48,4.16,4.16,0,0,0-1.11.21,18.52,18.52,0,0,1-4.08.47q-2.94,0-4.17-1.74t-1.23-6.22q0-4.45,1.25-6.1C412.25,177.1,413.69,176.55,415.73,176.55Z"/><path class="cls-1" d="M437.82,173a3.57,3.57,0,0,0-2.53-.66H434a5.09,5.09,0,0,0-2.26.42,2.73,2.73,0,0,0-1.2,1.05,12.15,12.15,0,0,0-.79,1.9l-6.24,18.58a3.71,3.71,0,0,0-.27,1.15.67.67,0,0,0,.54.74,21.68,21.68,0,0,0,4.05.21,1.07,1.07,0,0,0,.79-.27,2.63,2.63,0,0,0,.46-1l1.41-4.49h7.69l1.45,4.49a2.24,2.24,0,0,0,.49,1,1.18,1.18,0,0,0,.86.29,18.38,18.38,0,0,0,4-.21.75.75,0,0,0,.51-.77,3.35,3.35,0,0,0-.24-1.18l-6.17-18.69A6.69,6.69,0,0,0,437.82,173Zm-6,13.1c1.46-5,2.33-8,2.6-9.07.2.85,1.05,3.88,2.56,9.07Z"/><path class="cls-1" d="M447.4,179.49a7.27,7.27,0,0,0,1.38,4.78,7.54,7.54,0,0,0,4.32,2.3l2.8.6a4.32,4.32,0,0,1,2.14,1,2.52,2.52,0,0,1,.52,1.75,2.25,2.25,0,0,1-.72,1.76,4.13,4.13,0,0,1-2.65.64,19.68,19.68,0,0,1-5.22-.64,5.73,5.73,0,0,0-1.39-.31,1.22,1.22,0,0,0-1.21,1,9.42,9.42,0,0,0-.54,2.25,1.19,1.19,0,0,0,.91,1.22,24.43,24.43,0,0,0,7.32.94c3.32,0,5.69-.64,7.09-1.94a7.26,7.26,0,0,0,2.11-5.64c0-2.14-.4-3.68-1.2-4.63s-2.33-1.72-4.6-2.32l-3-.71c-1.61-.38-2.42-1.22-2.42-2.53,0-1.59.94-2.39,2.83-2.39a28.2,28.2,0,0,1,4.92.43,5.68,5.68,0,0,0,1.32.17c.47,0,.79-.3.94-.91a11.15,11.15,0,0,0,.41-2.29,1.1,1.1,0,0,0-.88-1.18,20.84,20.84,0,0,0-6.34-.74q-4.75,0-6.81,2A7.21,7.21,0,0,0,447.4,179.49Z"/><path class="cls-1" d="M487.83,173a3.54,3.54,0,0,0-2.52-.66H484a5.12,5.12,0,0,0-2.26.42,2.73,2.73,0,0,0-1.2,1.05,12.15,12.15,0,0,0-.79,1.9l-6.24,18.58a3.71,3.71,0,0,0-.27,1.15.67.67,0,0,0,.54.74,21.76,21.76,0,0,0,4.05.21,1.07,1.07,0,0,0,.79-.27,2.63,2.63,0,0,0,.46-1l1.41-4.49h7.69l1.45,4.49a2.36,2.36,0,0,0,.49,1,1.18,1.18,0,0,0,.86.29,18.38,18.38,0,0,0,4-.21.75.75,0,0,0,.51-.77,3.35,3.35,0,0,0-.24-1.18l-6.17-18.69A6.69,6.69,0,0,0,487.83,173Zm-6,13.1c1.47-5,2.33-8,2.6-9.07.2.85,1.05,3.88,2.56,9.07Z"/><path class="cls-1" d="M517.58,196.35h3.5c.73,0,1.08-.42,1.08-1.25V176.28a11.53,11.53,0,0,0-.08-1.62,3.7,3.7,0,0,0-.41-1.18,1.79,1.79,0,0,0-1-.86,6,6,0,0,0-1.89-.25h-1.32a6.3,6.3,0,0,0-1.89.24,2.52,2.52,0,0,0-1.23.86,5.5,5.5,0,0,0-.72,1.18c-.16.37-.37,1-.64,1.77q-2.33,7.19-2.7,8.43c-.61-1.93-1.56-4.73-2.87-8.4-.36-1-.61-1.66-.75-2a5.29,5.29,0,0,0-.7-1.15,1.93,1.93,0,0,0-1.07-.78,7.45,7.45,0,0,0-1.69-.15H502c-1.57,0-2.62.35-3.13,1a4.62,4.62,0,0,0-.78,2.83V195.2c0,.76.31,1.15.91,1.15h3.51c.67,0,1-.36,1-1.08q0-14.34-.1-17.33.81,2.52,4.11,12.34a4.32,4.32,0,0,0,.9,1.63,1.91,1.91,0,0,0,1.43.49h.61a2,2,0,0,0,1.48-.49,4.21,4.21,0,0,0,.91-1.77q2.83-8.46,3.84-12.2-.09,3-.1,17.19C516.63,195.94,517,196.35,517.58,196.35Z"/><path class="cls-1" d="M544.05,181.91a6.4,6.4,0,0,0,.85-3.5,5.26,5.26,0,0,0-1.44-4,7.44,7.44,0,0,0-4.46-1.72,31.81,31.81,0,0,0-3.75-.2h-4q-3.76,0-3.77,3.91v16.15a3.82,3.82,0,0,0,.93,2.85,3.91,3.91,0,0,0,2.81.89H535q5.16,0,7.22-.81,3.4-1.35,3.41-6.1a5.89,5.89,0,0,0-1.06-3.73,5.59,5.59,0,0,0-3.19-1.83A4.85,4.85,0,0,0,544.05,181.91ZM533,178c0-.79.31-1.18.94-1.18h2a7.61,7.61,0,0,1,1.75.16,2.68,2.68,0,0,1,1.3.76,2.49,2.49,0,0,1,.45,1.64,2.14,2.14,0,0,1-1.38,2.26,8.29,8.29,0,0,1-2.63.27H533Zm5.66,13.52a7,7,0,0,1-2.16.27h-2.25a1.32,1.32,0,0,1-1-.29,1.38,1.38,0,0,1-.27-1v-4.35h2.63a10.51,10.51,0,0,1,2.9.27,2.28,2.28,0,0,1,1.52,2.36C540,190.3,539.55,191.2,538.62,191.56Z"/><path class="cls-1" d="M550.7,172.47c-.68,0-1,.37-1,1.12v21.65c0,.74.33,1.11,1,1.11h3.47a1.06,1.06,0,0,0,.78-.31,1.09,1.09,0,0,0,.3-.8V173.55c0-.72-.32-1.08-1-1.08Z"/><path class="cls-1" d="M560.48,176.42v16.12a3.79,3.79,0,0,0,1,2.88,4.07,4.07,0,0,0,2.85.89h10.86c.69,0,1-.29,1-.87V192.6a.91.91,0,0,0-1-1h-7.9a1.26,1.26,0,0,1-1-.29,1.36,1.36,0,0,1-.27-1V186.4h7.75c.7,0,1-.29,1-.88v-2.86a.92.92,0,0,0-1-1H566v-3.2c0-.81.35-1.21,1-1.21h7.49c.69,0,1-.28,1-.85v-2.86a.9.9,0,0,0-1-1H564.29Q560.48,172.51,560.48,176.42Z"/><path class="cls-1" d="M593.34,196a4.13,4.13,0,0,0,2.51.62h1.22a3.68,3.68,0,0,0,2.29-.64,2.88,2.88,0,0,0,.84-2.42V173.75c0-.85-.35-1.28-1-1.28h-3.11c-.76,0-1.14.46-1.14,1.39q0,12.4.13,15.64-1.45-4-6.17-14.53a6.33,6.33,0,0,0-1.28-2,3.24,3.24,0,0,0-2.19-.59h-1.52a3.8,3.8,0,0,0-2.85.91,3.93,3.93,0,0,0-.86,2.77v19.19c0,.74.33,1.11,1,1.11h3.3a1.06,1.06,0,0,0,.78-.31,1.09,1.09,0,0,0,.3-.8q0-13.37-.1-16.46,1.46,3.71,6.34,14.8A5.8,5.8,0,0,0,593.34,196Z"/><path class="cls-1" d="M610.65,196.35h3.51a1,1,0,0,0,.74-.29,1.06,1.06,0,0,0,.31-.82v-18h5.46c.7,0,1-.28,1-.85v-2.86c0-.68-.34-1-1-1H604.21a.9.9,0,0,0-1,1v2.86c0,.57.35.85,1,.85h5.43v18C609.64,196,610,196.35,610.65,196.35Z"/><path class="cls-1" d="M621.35,196.21a21.55,21.55,0,0,0,4,.21,1.1,1.1,0,0,0,.8-.27,2.49,2.49,0,0,0,.45-1l1.42-4.49h7.69l1.45,4.49a2.25,2.25,0,0,0,.48,1,1.19,1.19,0,0,0,.86.29,18.44,18.44,0,0,0,4-.21.76.76,0,0,0,.5-.77,3.56,3.56,0,0,0-.23-1.18l-6.17-18.69a6.85,6.85,0,0,0-1.25-2.54,3.57,3.57,0,0,0-2.53-.66h-1.32a5.07,5.07,0,0,0-2.25.42,2.62,2.62,0,0,0-1.2,1.05,11.24,11.24,0,0,0-.79,1.9l-6.24,18.58a3.71,3.71,0,0,0-.27,1.15A.67.67,0,0,0,621.35,196.21ZM632,177.06c.21.85,1.06,3.88,2.57,9.07h-5.16C630.87,181.14,631.73,178.11,632,177.06Z"/><path class="cls-1" d="M650.25,172.47h-3.54c-.68,0-1,.37-1,1.12V192.7c0,2.41,1.24,3.61,3.74,3.61h10.65q1,0,1-.87V192.6c0-.67-.35-1-1-1h-7.65a1.05,1.05,0,0,1-1.21-1.18V173.55C651.23,172.83,650.9,172.47,650.25,172.47Z"/><path class="cls-1" d="M670.32,177.23h7.48c.7,0,1.05-.28,1.05-.85v-2.86c0-.68-.35-1-1.05-1H667.55q-3.81,0-3.81,3.91v16.12a3.79,3.79,0,0,0,1,2.88,4.07,4.07,0,0,0,2.85.89h10.86c.7,0,1-.29,1-.87V192.6a.9.9,0,0,0-1-1h-7.89a1.29,1.29,0,0,1-1-.29,1.36,1.36,0,0,1-.27-1V186.4H677c.69,0,1-.29,1-.88v-2.86a.91.91,0,0,0-1-1h-7.76v-3.2C669.27,177.63,669.62,177.23,670.32,177.23Z"/><path class="cls-1" d="M683.94,174a8.59,8.59,0,0,0-.68,10.25,7.51,7.51,0,0,0,4.32,2.3l2.8.6a4.32,4.32,0,0,1,2.14,1,2.52,2.52,0,0,1,.52,1.75,2.25,2.25,0,0,1-.72,1.76,4.15,4.15,0,0,1-2.65.64,19.76,19.76,0,0,1-5.23-.64,5.59,5.59,0,0,0-1.38-.31,1.21,1.21,0,0,0-1.21,1,9.42,9.42,0,0,0-.54,2.25,1.19,1.19,0,0,0,.91,1.22,24.36,24.36,0,0,0,7.31.94c3.33,0,5.7-.64,7.1-1.94a7.26,7.26,0,0,0,2.11-5.64c0-2.14-.4-3.68-1.2-4.63s-2.33-1.72-4.6-2.32l-3-.71c-1.62-.38-2.42-1.22-2.42-2.53,0-1.59.94-2.39,2.83-2.39a28.2,28.2,0,0,1,4.92.43,5.62,5.62,0,0,0,1.32.17c.47,0,.78-.3.94-.91A11.15,11.15,0,0,0,698,174a1.11,1.11,0,0,0-.88-1.18,20.84,20.84,0,0,0-6.34-.74Q686,172.07,683.94,174Z"/><path class="cls-1" d="M93.61,122q-4.38,2.73-12,2.73-17.69,0-36.38-13.1L33.14,135A66.82,66.82,0,0,0,54.7,145.12a97,97,0,0,0,26.78,3.66q22.41,0,35.29-9.38t12.89-26q0-13.59-8.93-21.72T94.45,77.78L80,73Q68.86,69.16,68.85,62.19q0-9.12,15-9.12a62.91,62.91,0,0,1,31.5,8.29l10.78-21.89Q106.58,29,82.49,29q-20.88,0-33,9.45T37.35,64a27.61,27.61,0,0,0,7.92,20.06q7.92,8.13,26.27,14.44l14.66,4.81Q98,107.14,98,114.77C98,117.76,96.53,120.16,93.61,122Z"/><polygon class="cls-1" points="354.18 120.41 306.85 120.41 306.85 30.84 275.35 30.84 275.35 146.95 354.18 146.95 354.18 120.41"/><polygon class="cls-1" points="451.43 120.41 394.33 120.41 394.33 101.17 447.22 101.17 447.22 77.28 394.33 77.28 394.33 57.38 451.43 57.38 451.43 30.84 362.83 30.84 362.83 146.95 451.43 146.95 451.43 120.41"/><polygon class="cls-1" points="494.27 85.08 538.9 146.95 563.32 146.95 563.32 30.84 531.83 30.84 531.83 91.72 487.36 30.84 462.77 30.84 462.77 146.95 494.27 146.95 494.27 85.08"/><path class="cls-1" d="M616.6,122.57H653L662.42,147h33.51L649.11,30.84H620.47L574.66,147h32.68ZM635,65.67l12.47,32.52H621.82Z"/><path class="cls-1" d="M724.54,214.63c-2-.06-4,0-6.06,0v-7.27c1.87,0,3.78.09,5.68,0a3.75,3.75,0,0,0,2.43-.9A3.23,3.23,0,0,0,727,204a2.58,2.58,0,0,0-2.43-1.66,49.46,49.46,0,0,0-6.09-.08c-.16-.75-.29-1.37-.43-2A4.36,4.36,0,0,0,714,196.5a25.58,25.58,0,0,0-10.07.69,15.49,15.49,0,0,0-9.8,8.95c0,.08-.09.14-.13.22-35.94,0-626.68,0-650.26,0-8.72,0-15.57-6.13-15.94-14.24a148.31,148.31,0,0,1,.19-16.5,13.47,13.47,0,0,1,13-12.34c8-.24,77.16-.33,122.9-.39,18.42,0,32.41,0,35.75-.06h3.22v0h0c.18-.41,2.65-6.86,2.78-7.28a26,26,0,0,0,.79-2.81v0a6.23,6.23,0,0,0,.48-1.31q1.19-3.87,2.34-7.74c.1-.33.21-.66.31-1a23.82,23.82,0,0,0,.76-2.66,5.63,5.63,0,0,0,.21-.69c0-.12.08-.24.11-.36l.15.21a19.77,19.77,0,0,0,1.7,2.18,8.36,8.36,0,0,0,1.17,1.56,4,4,0,0,0,.48.6c1.71,2.47,3.23,4.49,4.71,6.25a6.28,6.28,0,0,0,1.22,1.61,6.92,6.92,0,0,0,1.22,1.72,4.43,4.43,0,0,0,.43.54,4.23,4.23,0,0,0,4.32,1.63,4.32,4.32,0,0,0,2.7-1.91,4.17,4.17,0,0,0,.53-2.93l-.16-3.66c-.06-1.44-.11-2.89-.22-4.34,0-.48-.05-1-.07-1.44a26.09,26.09,0,0,0-.24-3.15h0s0,0,0,0a8.92,8.92,0,0,0,0-1.15l-.22-4.06c2.41,1.59,4.82,3.16,7.25,4.71.38.24.75.5,1.11.74a28.29,28.29,0,0,0,2.74,1.72,4.72,4.72,0,0,0,.93.59,26.83,26.83,0,0,0,3.4,2.2l.52.3a4,4,0,0,0,5.84-4.76l-.14-.45c-.14-.44-.25-.77-.38-1.07L249,135c-1-2.35-2-4.7-3-7.05-.08-.18-.15-.37-.22-.56a12,12,0,0,0-1-2.09,4.44,4.44,0,0,0-.22-.64l-1.77-4.25.14,0,5.17,1.23.78.18c2.58.6,5.16,1.2,7.76,1.76.36.07.72.17,1.07.27a14.19,14.19,0,0,0,4.29.65,4,4,0,0,0,3.85-4.06,4.89,4.89,0,0,0-1.4-3.36q-3-3.21-6-6.41l-1-1.09c-1.66-1.77-3.31-3.53-5-5.25-.1-.11-.2-.22-.29-.34,1.19,0,2.3-.19,3.37-.33l1.3-.16q5.46-.6,10.91-1.34a4.91,4.91,0,0,1,.55,0,8.19,8.19,0,0,0,3.92-1A4,4,0,0,0,273.87,96a5.21,5.21,0,0,0-2.43-2.41l-15.87-8,1.57-.81c1.14-.6,2.29-1.19,3.43-1.77,2.26-1.15,4.53-2.28,6.79-3.42l4.23-2.12a4.84,4.84,0,0,0,2.38-2.6,4,4,0,0,0-1.66-4.91,6.07,6.07,0,0,0-2.54-.81c-2.72-.31-5.44-.62-8.15-1L252.24,67l.84-.91,3.32-3.58c1.81-1.93,3.63-3.85,5.44-5.77l2.52-2.67a5.14,5.14,0,0,0,1.52-3.3,4.17,4.17,0,0,0-1.21-3,4.32,4.32,0,0,0-3-1.29,5.43,5.43,0,0,0-1.59.13l-8.85,2-2.14.5c-1.83.44-3.67.87-5.5,1.27l-.73.16c.11-.25.21-.49.31-.74l.37-.89a31,31,0,0,0,1.27-3.34,44,44,0,0,0,2.32-5.36,7.17,7.17,0,0,0,.35-.68l2.26-5.26a5.39,5.39,0,0,0,.43-1.58,4.43,4.43,0,0,0,.07-.81,4.15,4.15,0,0,0-1.81-3.34,3.47,3.47,0,0,0-.46-.27,4.14,4.14,0,0,0-3.71.08,19.15,19.15,0,0,0-3.43,2.14A23.54,23.54,0,0,0,238,32.35a5.18,5.18,0,0,0-.86.5l-3.16,2q-2.85,1.85-5.67,3.71l.6-11.28c.09-1.64.18-3.27.26-4.9l0-.32a12.4,12.4,0,0,0-.1-3,4,4,0,0,0-5.81-2.87,6.09,6.09,0,0,0-2.2,2l-.9,1.19q-2.39,3.12-4.73,6.28a2.42,2.42,0,0,1-.25.31,8.1,8.1,0,0,0-1.43,2.19l-.36.46a4.22,4.22,0,0,0-1,1,3.83,3.83,0,0,0-.54.73,5.63,5.63,0,0,0-.48.72l-.14.19a6.38,6.38,0,0,0-.71.8l-2.57-8.5c-.82-2.75-1.66-5.5-2.51-8.3a5.48,5.48,0,0,0-1.74-2.91,4.07,4.07,0,0,0-3.59-.75,4.27,4.27,0,0,0-2.83,2.46,9,9,0,0,0-.32.85l-5.23,17.17-.27-.34a5.29,5.29,0,0,0-.9-1.2A9.28,9.28,0,0,0,189.37,29a4.21,4.21,0,0,0-.35-.48,6.45,6.45,0,0,0-1.1-1.42c-1.41-2.09-2.94-4-4.4-5.86A12.41,12.41,0,0,0,182,19.13a10.4,10.4,0,0,0-2-2.39,4,4,0,0,0-6.76,3v.4c0,.34,0,.6,0,.88l.16,3.45c.16,3.37.32,6.73.53,10.1,0,.24,0,.48,0,.73a12.92,12.92,0,0,0,.26,2.78h0v.51a.49.49,0,0,0,0,.12,13.74,13.74,0,0,0-2.12-1.38,7.16,7.16,0,0,0-.93-.62,6.66,6.66,0,0,0-1-.65,4.92,4.92,0,0,0-.56-.37,4.78,4.78,0,0,0-.73-.46,5.56,5.56,0,0,0-.87-.55l-.33-.24-.85-.56-7.15-4.67a6.13,6.13,0,0,0-3-1.22,4.05,4.05,0,0,0-4,2.22,4.44,4.44,0,0,0,0,3.92l1,2.38q1.4,3.32,2.83,6.62c.08.17.14.36.21.54a11.15,11.15,0,0,0,1,2.23,12.17,12.17,0,0,0,1.12,2.6c.27.76.57,1.5.87,2.23l-16.81-3.9a4.41,4.41,0,0,0-4.31,7.65,4.48,4.48,0,0,0,.61.62c.93,1.13,1.91,2.15,2.87,3.14l1.24,1.31.49.55a17.72,17.72,0,0,0,1.68,1.73,4.38,4.38,0,0,0,.36.39,13.23,13.23,0,0,0,1.6,1.72,13.92,13.92,0,0,0,1.77,1.91,5.66,5.66,0,0,0,.76.79c.11.15.23.29.35.43l-1.35.13c-1.11.11-2.21.21-3.31.34-3.62.43-7.23.86-10.84,1.33l-.51.06a11.63,11.63,0,0,0-3.85.95,4,4,0,0,0-.11,7.24L147,85.54,130.36,94a4,4,0,0,0-.29,7,6.66,6.66,0,0,0,3.39,1.11,29.24,29.24,0,0,1,3,.3c.55.08,1.09.15,1.64.21,2.72.31,5.44.65,8.15,1l3.93.49c-.66.7-1.33,1.41-2,2.11-3.12,3.25-6.18,6.56-9.23,9.87l-.25.25a7.63,7.63,0,0,0-2,2.86,4,4,0,0,0,2.35,5.14,5.52,5.52,0,0,0,3.3.2l8.41-2c1.65-.38,3.29-.76,4.94-1.16.89-.22,1.78-.41,2.68-.6l1.16-.26-7,16.41a4.41,4.41,0,0,0,1.18,5.46,4.29,4.29,0,0,0,5.35,0l1-.64,2.34-1.49c1.35-.86,2.71-1.72,4-2.65.79-.56,1.61-1.07,2.43-1.59s1.45-.91,2.16-1.39c1-.68,2-1.34,3-2,0,.52-.05,1-.07,1.57-.06,1.05-.13,2.1-.2,3.14-.16,2.28-.32,4.63-.34,7,0,.62-.06,1.22-.12,1.83s-.09.94-.12,1.4,0,1,0,1.44a9.44,9.44,0,0,1,0,1.3,4.36,4.36,0,0,0,.61,3.19c-41.77,0-119.65,0-126.76.05a56.29,56.29,0,0,0-9.35.81,23.33,23.33,0,0,0-19,20c0,.13-.34,18.22-.2,19,2.3,14.18,11.77,22,26.68,22H694.12c2.37,5.26,6.18,9,12.16,9.89a32.46,32.46,0,0,0,7.88.08c2.73-.26,4-2.12,4.33-5.71,2,0,4,0,5.91,0,1.77,0,2.93-1,2.93-2.53A2.57,2.57,0,0,0,724.54,214.63Z"/><path class="cls-2" d="M256.41,99.56q5.41-.6,10.8-1.34a7.65,7.65,0,0,0,3-.5,1.19,1.19,0,0,0-.6-.55l-5.52-2.77-7.72-3.94q-4.45-2.25-8.89-4.52c-.19-.09-.48-.14-.46-.43s.3-.31.5-.41c1-.52,2.05-1.06,3.09-1.57,2.72-1.36,5.41-2.8,8.12-4.18,3.66-1.85,7.33-3.68,11-5.52a.94.94,0,0,0,.48-.48,2,2,0,0,0-.92-.25l-8.18-1-11.84-1.46-4.64-.59c-.17,0-.37,0-.46-.2s0-.28.14-.39c.52-.54,1.08-1,1.57-1.61a9.14,9.14,0,0,0,1.43-1.73h0c.31,0,.46-.3.65-.5,1.83-2,3.64-3.95,5.48-5.91q4-4.23,8-8.45a1.17,1.17,0,0,0,.42-.77,4.36,4.36,0,0,0-.89,0c-2.94.67-5.88,1.34-8.82,2-2.57.6-5.13,1.23-7.72,1.78s-4.88,1.22-7.35,1.69c-.25,0-.5.37-.75,0s0-.49.09-.71c1-2.36,2.05-4.7,3-7.07a34.08,34.08,0,0,0,1.55-4l.06-.23a37.82,37.82,0,0,0,2.36-5.38l.09-.38a.53.53,0,0,0,.28-.34c.75-1.76,1.51-3.51,2.26-5.27a1.15,1.15,0,0,0,.11-.66h0c.05,0,.1-.08,0-.14l-.09.08A15.33,15.33,0,0,0,243,34h0a19.89,19.89,0,0,0-3,2h0a1.38,1.38,0,0,0-.6.28c-3.41,2.23-6.83,4.43-10.23,6.68a33.45,33.45,0,0,0-3.72,2.54l0,0c-.37,0-.57.3-.87.42s-.33.28-.53.12-.08-.32-.06-.5a14.66,14.66,0,0,0,.06-2.39c0-.2,0-.4,0-.6a1.15,1.15,0,0,0,.1-.35c.22-4,.42-7.95.63-11.93.15-2.66.31-5.33.44-8a10,10,0,0,0,0-2.38,2.4,2.4,0,0,0-.83.85c-1.88,2.46-3.76,4.92-5.59,7.42a6,6,0,0,0-1.35,2.05l-1,1.36-.15.14,0,0-.12.14h0a.3.3,0,0,0-.24.34.7.7,0,0,0-.46.61.52.52,0,0,0-.33.6l-.32.26a.31.31,0,0,0-.15.31h0a3.2,3.2,0,0,0-1.18,1.51v0a1.73,1.73,0,0,0-.78,1l-.12.15h0a.3.3,0,0,0-.27.34.7.7,0,0,0-.46.61,2.3,2.3,0,0,0-.59.76v0a3.47,3.47,0,0,1-.37.54c.11,0,.16,0,.19-.06s-.08.07-.19.06v0l-.12.14,0,0c-.27.1-.36.35-.46.59-.36.22-.43.65-.7.95h0c-.51.07-.44-.43-.66-.66a.08.08,0,0,0,0-.1.49.49,0,0,0-.18-.47.2.2,0,0,0,0-.11h0c0-.06,0-.11,0-.16h0c0-.11-.06-.22-.08-.33a2.31,2.31,0,0,0-.39-1.19c0-.15-.07-.3-.1-.45h0Q206.06,31,204.2,24.82q-1.24-4.12-2.5-8.23a1.94,1.94,0,0,0-.52-1.09c-.1.26-.2.47-.27.68-.68,2.23-1.37,4.47-2,6.71q-2.62,8.63-5.24,17.27c-.09.28-.17.55-.55.5l-.73-1a4,4,0,0,0-.94-1.26l-.13-.16a.36.36,0,0,0-.28-.36l-.18-.24a.5.5,0,0,0-.39-.5l0,0a19.81,19.81,0,0,0-2.18-3c-.2-.25-.27-.69-.72-.7A4.92,4.92,0,0,0,186,31.26h0a.29.29,0,0,0-.24-.32l0,0a2.4,2.4,0,0,0-.89-1.21.1.1,0,0,0,0-.09c-1.4-2.11-3-4.09-4.55-6.06h0a8.47,8.47,0,0,0-1.51-2h0a5.56,5.56,0,0,0-1.46-1.84c0,.49,0,.79,0,1.09.22,4.49.41,9,.69,13.49a12.46,12.46,0,0,0,.28,3.22.42.42,0,0,0,.11-.16.42.42,0,0,1-.11.16v.3c0,.1,0,.21,0,.31l.05,0s0,0,.06-.07,0,0-.06.07l-.05,0v.46c0,.19,0,.38,0,.58a.91.91,0,0,1,.4.91.91.91,0,0,0-.4-.91,4.91,4.91,0,0,0-.06.67c.11,1.92.21,3.84.34,5.76,0,.34,0,.55-.4.49l0,0a2.39,2.39,0,0,0-1.09-.7h0a1.26,1.26,0,0,0-.84-.5l0,0a35.35,35.35,0,0,0-4.07-2.69h0a8.81,8.81,0,0,0-2.29-1.48h0a1.86,1.86,0,0,0-.9-.61h0a1.79,1.79,0,0,0-.92-.6.09.09,0,0,0-.08,0,.47.47,0,0,0-.47-.29h0a.75.75,0,0,0-.63-.42h0a1.69,1.69,0,0,0-.92-.6h0a2.27,2.27,0,0,0-.32-.3c-2.61-1.71-5.21-3.43-7.84-5.12a3.16,3.16,0,0,0-1.35-.69.57.57,0,0,0,.06.55c1.27,3,2.53,6,3.83,9a9.37,9.37,0,0,0,1.26,2.63l.06.23a8.74,8.74,0,0,0,1,2.44v0c.84,2.35,1.9,4.62,2.91,6.9.05.1.1.21.16.31a19.91,19.91,0,0,0,.9,2.37l.06.07c.88-.46,1.33-1.35,2-2a45.06,45.06,0,0,1,5.32-4.74,7.52,7.52,0,0,0,.72-.67h0c1-.64,2.07-1.24,3.06-1.92a34.36,34.36,0,0,1,6.23-3.22,44.11,44.11,0,0,1,15-3.42c.38,0,.75-.08,1.13-.13a.66.66,0,0,0-.54-.13.66.66,0,0,1,.54.13h2.42c.27,0,.54-.12.81-.15l.27,0-.27,0c-.27,0-.54.1-.81.15a6.63,6.63,0,0,0,2.13.11l.3,0a2.76,2.76,0,0,1,.79-.15,2.76,2.76,0,0,0-.79.15c.43.3.91.14,1.37.14l.29,0a1,1,0,0,1,.6-.13,1,1,0,0,0-.6.13,1.36,1.36,0,0,0,.93.11l.28,0a12.35,12.35,0,0,0,2.89.58h0l.29,0h0c1.34.49,2.74.78,4.1,1.19A50.35,50.35,0,0,1,221,45a38.61,38.61,0,0,1,6.89,4.16,43.35,43.35,0,0,1,6.91,6.29,5.33,5.33,0,0,0,.49.46l.07-.07h0l-.07.07a57.17,57.17,0,0,1,4.57,6.36A51.21,51.21,0,0,1,242.79,68a43,43,0,0,1,3,10.48c.24,1.54.38,3.1.49,4.65.07,1,.06,2.11.19,3.16a5.06,5.06,0,0,0,.55,0h0a5.06,5.06,0,0,1-.55,0v.44h0a67.46,67.46,0,0,1-.79,6.82,42.33,42.33,0,0,1-1.38,5.4c-.56,1.63-1.14,3.25-1.67,4.89h0a1.55,1.55,0,0,1-.07.23h0a1.17,1.17,0,0,0-.42.81c0,.11-.07.23-.11.34h0a.92.92,0,0,0-.43.76l-.18.42h0l-2.57,4.26a.11.11,0,0,0-.05.09h0a4.39,4.39,0,0,0-.92,1.38s-.06,0-.07,0h0a.15.15,0,0,0-.15.17.17.17,0,0,0,0,.1h0a1.42,1.42,0,0,0-.64.88h0a.34.34,0,0,1,0,.36.34.34,0,0,0,0-.36,11.83,11.83,0,0,0-1.59,1.87h0a2.19,2.19,0,0,0-.79.89l-.12.16h0a.44.44,0,0,0-.31.31l-.18.25h0l-.17.17a.09.09,0,0,0-.08,0h0a2.48,2.48,0,0,0-.91.91.1.1,0,0,0,0,.08h0l-.17.18-.25.18h0a.27.27,0,0,0-.2.24h0a.3.3,0,0,0-.26.2l-.32.27h0a.47.47,0,0,0-.28.32h0a1.69,1.69,0,0,0-.91.75l0,0,0,0h0a14.25,14.25,0,0,0-2.38,1.86,7,7,0,0,1-1.36.93h0a4.48,4.48,0,0,0-1.69,1,40.06,40.06,0,0,1-7.15,3.56A43.45,43.45,0,0,1,203,130.59a4.12,4.12,0,0,0-.59.12l.2.11-.2-.11H200c-1.11-.26-2.25-.14-3.37-.29a53.37,53.37,0,0,1-9-1.9,45.73,45.73,0,0,1-7.24-3,39.92,39.92,0,0,1-7-4.49,45.34,45.34,0,0,1-5.07-4.63,48.28,48.28,0,0,1-5.46-7.11,43.64,43.64,0,0,1-6.33-17.7c-.29-2.27-.32-4.56-.53-6.84-.17,0-.36,0-.54,0,.18,0,.37,0,.54,0v-.44h0a61.44,61.44,0,0,1,1.21-9,46.05,46.05,0,0,1,4.79-12.21c.84-1.46,1.79-2.85,2.69-4.27h0a9,9,0,0,0,1.81-2.43l-.06-.06a7.35,7.35,0,0,0-1.62-.3l-.4,0a1.08,1.08,0,0,0-.68-.27q-11-2.55-21.9-5.08c-.39-.09-1-.45-1.16-.06s.4.71.78,1a.14.14,0,0,0,.08,0,.53.53,0,0,0,.36.42h0c1.33,1.67,2.86,3.15,4.31,4.71a17,17,0,0,0,2.26,2.3l0,.05a.26.26,0,0,0,.19.22h0a9.21,9.21,0,0,0,1.66,1.81h0a9.62,9.62,0,0,0,1.83,1.94h0a1.36,1.36,0,0,0,.59.62h0a13,13,0,0,0,2.28,2.41h0a12.51,12.51,0,0,0,2.28,2.43h0a2,2,0,0,0,.46.68c.19.17.41.33.3.63s-.39.21-.59.25-.61,0-.9.1a4.35,4.35,0,0,0-1.67.32l-.6.07a12.62,12.62,0,0,0-3.35.38l-.28,0c-1.55.16-3.1.29-4.65.47-3.6.43-7.2.86-10.79,1.32a10,10,0,0,0-3.17.67l23.65,12-23.65,12a2.67,2.67,0,0,0,1.37.51c1.69,0,3.35.35,5,.54,3.57.41,7.15.86,10.72,1.3,2.82.35,5.64.71,8.47,1,.39,0,.63.13.55.58v0c-.57,0-.69.54-1,.85-2.11,2.16-4.13,4.41-6.23,6.59-3.1,3.22-6.14,6.51-9.17,9.8a5.38,5.38,0,0,0-1.4,1.76,1.53,1.53,0,0,0,.94,0c1.75-.41,3.5-.85,5.26-1.26,2.68-.64,5.37-1.24,8.05-1.89,2.28-.56,4.58-1,6.83-1.59,1.24-.34,2.49-.6,3.75-.82.75-.14.87.07.58.77-.62,1.46-1.22,2.92-1.84,4.38-1.08,2.54-2.19,5.08-3.27,7.62-.92,2.14-1.82,4.3-2.74,6.44-.6,1.41-1.22,2.81-1.83,4.22-.11.25-.28.55,0,.76s.4-.06.59-.19c.59-.39,1.18-.76,1.77-1.13,1.83-1.19,3.7-2.32,5.48-3.58,1.52-1.08,3.13-2,4.67-3,1.76-1.2,3.56-2.32,5.34-3.48,1.18-.76,2.36-1.53,3.55-2.27.19-.12.41-.44.65-.26a.94.94,0,0,1,.2.85c-.34,2.75-.34,5.53-.49,8.29-.18,3.32-.51,6.63-.53,10,0,1.16-.17,2.31-.24,3.47a27,27,0,0,1-.16,3.24.31.31,0,0,0,.18.38c.14.06.21-.07.3-.17.27-.33.59-.62.83-1,1.68-2.54,3.65-4.86,5.44-7.31,1-1.38,2-2.76,3-4.12s2-2.55,3-3.85,2.06-2.78,3.09-4.17c.29-.39.5-.24.62.15.41,1.26.81,2.53,1.2,3.8.56,1.82,1.1,3.65,1.66,5.48.38,1.25.78,2.5,1.16,3.74.55,1.78,1,3.58,1.62,5.34.19.54.19,1.19.68,1.62l0,.42a1.11,1.11,0,0,1,.3.17,1.11,1.11,0,0,0-.3-.17c.41,1.4.83,2.8,1.25,4.2h.2a42,42,0,0,0,1.18-4.16.09.09,0,0,0,0-.11.36.36,0,0,0,.11-.34h0a2,2,0,0,0,.38-.89c.79-2.57,1.56-5.14,2.33-7.71a31.64,31.64,0,0,0,1-3.69l0-.16a.47.47,0,0,0,.13-.45l0-.15a.29.29,0,0,0,.1-.3,1,1,0,0,0,.05-.16.29.29,0,0,0,.11-.29s0-.11.05-.17a.48.48,0,0,0,.11-.43.1.1,0,0,0,0-.1,28.34,28.34,0,0,0,1.45-4.78.12.12,0,0,0,0-.1,1.75,1.75,0,0,0,.38-.87c.15-.43.32-.48.58-.09a1.31,1.31,0,0,0,.28.24,1.47,1.47,0,0,0,.1.22c1.15,1.54,2.28,3.1,3.45,4.62a24.48,24.48,0,0,0,2.44,3.12h0a4.51,4.51,0,0,0,1.16,1.55l0,0v0a.26.26,0,0,0,.19.27h0a81.46,81.46,0,0,0,5,6.58l.18.25h0a2.25,2.25,0,0,0,.8,1h0l.13.19.3.43a2.73,2.73,0,0,0,1,1.28.09.09,0,0,0,0,.08.33.33,0,0,0,.26.35l0,0c0,.17.14.36.34.31s.08-.23.07-.36c0-.37-.05-.73-.07-1.09s0-.8-.05-1.2c-.09-2-.13-4-.27-6-.11-1.5-.07-3-.31-4.51,0-.15,0-.3,0-.44a1.68,1.68,0,0,1-.38-1.2,1.68,1.68,0,0,0,.38,1.2,6.93,6.93,0,0,0,0-.91c-.19-3.54-.39-7.09-.58-10.64-.06-1.18,0-1.18,1-.62a1,1,0,0,0,.29.07.12.12,0,0,0,.09,0c.08.24.32.32.5.44,4,2.59,7.9,5.21,11.89,7.76a35.33,35.33,0,0,0,4.09,2.55.12.12,0,0,0,.07,0c.07.2.24.24.44.25h0a23,23,0,0,0,3.94,2.59c-.19-.56-.27-.9-.41-1.22-1.2-2.82-2.39-5.65-3.62-8.46A10,10,0,0,0,241,127l-.06-.23h0a2.21,2.21,0,0,0-.11-.51c-1.26-3-2.54-6.08-3.81-9.12-.24-.58-.52-1.14-.74-1.73-.13-.33-.08-.63.41-.51l4.1,1c2.74.65,5.47,1.31,8.22,2s5.63,1.32,8.45,1.92a17.55,17.55,0,0,0,4.35.85,1,1,0,0,0-.32-.66c-2-2.13-4-4.27-6-6.39s-3.94-4.23-6-6.29a10.67,10.67,0,0,0-2.26-2.29,9,9,0,0,0-1.7-2c-.39-.4-.62-1-1.2-1.18l-.16-.14c-.09-.45.09-.6.55-.66,2.19-.31,4.41-.46,6.58-.89l.29,0a2.22,2.22,0,0,1,1.39-.45,2.22,2.22,0,0,0-1.39.45A46.56,46.56,0,0,0,256.41,99.56ZM174.54,49h0l.06.06Zm29.13-8.8a2.48,2.48,0,0,1,.27,0A2.48,2.48,0,0,0,203.67,40.18Zm.4,0,.26.09Zm1.71.12.16,0Zm1.43.19a.3.3,0,0,1,.11.06A.3.3,0,0,0,207.21,40.54Zm2.23.23a.3.3,0,0,0,.22.19A.3.3,0,0,1,209.44,40.77Zm1.6-2.15h0Zm0,0a.19.19,0,0,0,0-.08A.19.19,0,0,1,211.07,38.59Zm-.15.25Zm24.94,17,0,0Zm0,0h0Zm-.15,59.44h0Zm-9.46,8.28h0ZM245,112.24a.68.68,0,0,1-.11-.34h0A.68.68,0,0,0,245,112.24Zm3.38-1.86a.56.56,0,0,0-.05-.32.56.56,0,0,1,.05.32Zm-3.55,1.24a1.47,1.47,0,0,1,0-.27A1.47,1.47,0,0,0,244.82,111.62Zm-.64.17h0Zm9.34-12.24-.29,0Z"/><path class="cls-2" d="M201.23,44a41.56,41.56,0,0,0-34.46,64.81l10.9-6.8a20.26,20.26,0,0,1-1.17-13.52c2-7.65,6.95-12.28,14.9-13.62,10-1.7,19-5.29,24.84-14.3.45-.69,1.79-1.44,2.38-1.23a3.32,3.32,0,0,1,1.88,2.27c.71,8.82,1.73,17.65,1.73,26.47A25.87,25.87,0,0,1,211,109.85c-7.16,5.18-16.95,5.78-23.55,1.35,9-5.71,16.78-12.55,21.12-23.38a7.75,7.75,0,0,0-1.52.68c-8.16,9-18.55,14.57-29.59,19.16a88.42,88.42,0,0,0-8.29,4.42,41.56,41.56,0,1,0,32-68.06Z"/></svg>